<?xml version="1.0" standalone="no"?>
<!DOCTYPE svg PUBLIC "-//W3C//DTD SVG 1.1//EN" "http://www.w3.org/Graphics/SVG/1.1/DTD/svg11.dtd" >
<svg xmlns="http://www.w3.org/2000/svg">
<metadata>Generated by IcoMoon</metadata>
<defs>
<font id="icomoon" horiz-adv-x="1024">
<font-face units-per-em="1024" ascent="960" descent="-64" />
<missing-glyph horiz-adv-x="1024" />
<glyph unicode="&#x20;" horiz-adv-x="512" d="" />
<glyph unicode="&#xe900;" glyph-name="cannabis" d="M945.817 332.721c-57.104 1.356-72.138-0.628-103.194-4.837-78.665-13.277-181.684-48.98-237.411-80.403-17.101-7.695-36.914-18.71-58.622-26.789 7.91 6.51 26.687 22.222 26.687 22.222 12.427 12.002 39.557 36.412 53.944 54.665 12.336 11.085 36.54 39.716 63.38 73.875 15.782 22.387 60.063 89.351 67.738 103.359 14.547 42.152 45.086 128.275 69.888 157.061 6.48 7.208 29.535 38.909 42.507 48.992-18.565-6.044-38.906-12.615-49.917-19.065-17.711-10.871-30.142-21.46-45.896-33.52-21.882-17.635-70.426-57.215-81.445-68.438-31.907-29.824-70.176-80.651-89.52-117.643-23.099-54.585-46.342-91.213-61.364-142.229-1.522-5.177-14.48-39.346-26.947-71.197 9.535 57.949 22.242 97.826 29.445 160.321 2.416 24.016 11.529 44.198 17.083 74.355 6.493 82.865-13.789 162.062-11.522 198.098-1.591 26.402-4.929 63.932-9.356 87.093-7.52 27.020-10.513 50.808-19.97 87.132 0 0-0.716 27.381 6.486 49.714s0.527 13.041-9.563-6.404c-3.127-20.639-24.856-53.283-30.78-65.253-2.261-7.617-15.371-45.767-20.899-63.064-8.796-20.259-16.315-49.507-20.953-77.921-5.516-38.836-12.631-83.787-13.697-117.251-4.515-25.674 9.908-82.414 9.7-116.728 2.066-21.309 3.658-41.373 6.599-53.428 5.103-31.034 12.383-67.11 15.464-85.682 8.162-27.986 11.126-63.892 13.776-70.432-10.922 21.718-20.303 48.852-31.473 74.637-8.219 24.451-19.668 48.272-24.082 60.623-30.782 58.443-72.833 140.226-96.151 182.17-71.95 82.165-96.751 116.351-145.467 161.938-21.476 20.826-26.393 39.895-39.364 62.228-0.364-59.572 5.515-118.905 21.237-173.41 24.020-58.676 40.657-99.391 73.866-154.393 23.055-31.354 32.709-46.733 48.442-66.502 43.255-52.23 93.35-92.955 139.592-128.733 10.004-6.181 24.598-24.768 24.598-24.768-13.045 7.045-29.020 17.271-36.12 22.608-50.487 33.378-153.464 89.45-201 113.104-44.158 13.954-80.215 32.961-122.285 49.812-17.127 6.665-45.468 13.135-75.844 19.354 13.595-12.477 7.924-11.522 21.617-19.451 10.822-9.92 30.459-25.002 41.337-36.129 33.545-45.297 72.891-75.565 106.357-103.646 21.031-13.099 63.865-37.512 90.777-51.152 37.577-10.035 73.589-15.925 118.551-24.996 8.819-3.032 34.901-5.997 60.384-9.504-49.136 0.181-88.957-2.361-131.137-12.759-20.683-4.093-37.183-10.028-55.376-19.195-26.906-8.754-64.064-38.569-134.244-77.205 4.15-1.996 34.393 3.087 44.885 1.989 17.15 1.538 47.62 7.428 57.822 9.084 2.61-0.011 6.946 1.232 11.902 2.042 55.612 1.846 156.984 41.196 194.315 58.462-33.12-20.457-55.832-40.437-72.734-66.069-4.275-11.423-10.585-31.516-12.747-53.686 45.879 50.087 92.46 86.636 132.934 104.987-2.221-42.896-5.853-79.036-0.227-110.936 3.981-4.693 52.783-25.618 58.364-21.869-9.787 10.36-33.174 80.423-26.223 136.901 32.44-16.696 55.553-41.824 74.657-65.101 12.971-16.569 53.139-61.422 53.139-61.422s0 18.013-1.438 27.375c-10.009 32.581-21.242 60.489-40.751 76.241 55.25-26.743 101.926-43.019 170.66-56.011 31.613-4.423 61.325-16.85 98.836-31.427-28.184 32.301-53.929 54.034-64.996 63.552-49.251 40.329-70.623 64.067-148.538 79.922-31.954 7.724-71.22 8.911-113.737 15.817 21.819 2.076 91.762 4.993 108.974 6.404 40.401 2.897 88.382 14.936 139.758 28.813 72.617 13.807 123.298 68.882 165.148 80.901 9.368 4.326 33.794 14.669 48.92 17.551-13.089 6.197-50.635 13.981-64.777 15.247z" />
<glyph unicode="&#xe901;" glyph-name="cross" d="M340.846 789.577v-170.423h-340.846v-342.309h340.846v-340.846h342.309v340.846h340.846v342.309h-340.846v340.846h-342.309v-170.423z" />
<glyph unicode="&#xe902;" glyph-name="home3" d="M1024 352l-192 192v288h-128v-160l-192 192-512-512v-32h128v-320h320v192h128v-192h320v320h128z" />
<glyph unicode="&#xe903;" glyph-name="weedmaps-large" horiz-adv-x="1632" d="M1131.788 895.974c-23.52-0.34-41.133-3.796-60.891-11.553-20.826-8.174-45.628-25.711-64.35-45.489-9.268-9.79-17.364-17.816-18.012-17.816s-1.179 12.995-1.179 28.848c0 19.631-0.771 29.619-2.481 31.329-3.576 3.576-120.949 3.576-124.524 0-3.735-3.735-3.609-491.691 0.129-493.204 4.268-1.72 127.666-1.479 130.399 0.265 1.91 1.211 2.694 39.216 3.264 158.199 0.816 171.976 0.434 166.397 13.901 192.856 17.209 33.81 47.226 50.008 88.693 47.84 30.219-1.581 47.751-11.604 59.063-33.741 10.719-20.972 10.988-25.704 11.226-195.989 0.124-86.959 0.966-160.731 1.826-163.941l1.566-5.809 64.284-0.521c44.271-0.384 65.196 0.129 67.090 1.698 2.222 1.843 2.951 32.616 3.524 159.306 0.696 154.568 0.736 157.2 5.288 173.472 8.169 29.208 21.804 47.226 43.986 58.146 12.653 6.229 15.801 6.826 37.201 7.506 19.577 0.621 25.561 0.040 36.613-3.651 16.074-5.366 30.936-17.544 37.201-30.477 11.408-23.565 11.13-18.551 12.008-196.25 0.55-111.639 1.508-165.801 3.003-167.601 1.703-2.049 17.050-2.676 66.766-2.676h64.547l1.826 4.896c2.562 6.741 2.742 324.984 0.197 351.711-7.071 74.24-40.956 122.105-100.051 141.295-27.686 8.994-39.254 10.53-77.534 10.572-32.541 0.040-38.263-0.471-52.209-4.83-30.984-9.673-62.385-30.759-87.192-58.609-6.235-6.999-12.154-12.253-13.182-11.619s-6.129 7.689-11.286 15.664c-13.024 20.131-26.382 32.294-46.014 41.765-26.42 12.754-43.836 16.834-77.405 18.144-6.158 0.24-11.868 0.34-17.295 0.265zM89.256 883.765c-36.521 0-67.884-0.543-69.701-1.239s-3.327-2.331-3.327-3.59c0-1.254 23.586-76.536 52.406-167.336s55.236-174.048 58.671-184.956c3.438-10.913 7.494-23.6 9.070-28.191s7.229-22.45 12.531-39.681c16.734-54.378 22.051-69.64 24.606-70.681 1.365-0.557 32.669-1.086 69.572-1.179 51.295-0.129 67.591 0.419 69.246 2.415 1.191 1.433 18.399 66.516 38.184 144.624s37.982 149.949 40.464 159.636c2.481 9.684 5.604 17.961 6.918 18.404 1.324 0.441 3.344-2.784 4.504-7.178 3.968-15.062 27.591-104.049 32.892-123.872 2.916-10.913 15.491-58.295 27.935-105.271s23.874-86.166 25.386-87.126c3.551-2.252 133.446-2.316 136.986-0.066 1.473 0.936 7.405 16.692 13.182 34.982s18.355 58.124 27.935 88.566c42.31 134.472 87.618 278.261 101.031 320.577 10.38 32.754 13.932 46.696 12.399 48.557-1.637 1.989-17.781 2.61-67.55 2.61-56.653 0-65.811-0.42-68.659-3.264-1.806-1.806-3.264-3.717-3.264-4.241s-8.865-33.605-19.71-73.488c-10.845-39.884-30.178-111.039-42.943-158.136s-24.063-86.513-25.127-87.584c-1.065-1.071-2.528-1.389-3.199-0.717s-19.341 73.232-41.509 161.202c-22.169 87.972-41.502 161.363-42.943 163.095-2.23 2.689-11.961 3.131-65.785 3.131-48.047 0-63.684-0.624-65.264-2.61-1.146-1.433-9.785-34.093-19.189-72.575s-26.010-106.614-36.939-151.415c-23.694-97.115-25.427-103.378-27.867-103.378-2.432 0 4.941-26.47-74.335 267.064-8.49 31.434-16.496 58.449-17.816 60.042-1.955 2.354-14.751 2.873-68.788 2.873zM376.732 207.955c-0.14 0.006-0.246-0.032-0.324-0.066-4.348-1.783-62.286-82.329-61.219-85.101 2.559-6.663 65.763-49.66 110.034-74.859 113.495-64.595 234.623-102.279 353.991-110.101 37.137-2.435 41.001-2.416 77.337-0.066 44.544 2.88 62.942 5.215 100.176 12.595 95.25 18.876 192.794 57.508 284.033 112.584 42.003 25.355 84.582 56.231 84.582 61.281 0 2.998-57.467 81.113-61.219 83.211-1.358 0.76-8.596-2.358-16.059-6.918-119.374-72.987-311.926-111.74-496.011-99.854-137.226 8.856-268.973 45.021-355.823 97.636-9.023 5.465-17.435 9.596-19.513 9.658z" />
<glyph unicode="&#xe904;" glyph-name="lakeside-solo" horiz-adv-x="4563" d="M-0.203 692.034v-734.465h501.074l53.275 113.624h-431.513v620.841h-122.837zM909.855 801.697l-363.42-844.129h130.743l99.616 220.391c93.659 2.227 284.277 44.939 362.645 100.178l138.359-320.569h135.289c-119.018 276.712-242.354 569.216-375.66 878.483zM976.52 683.017l118.577-302.487c-73.073-58.876-208.6-89.458-282.117-89.425l163.54 391.913zM1937.859 797.22c-269.189-53.819-330.15-220.694-413.198-268.024v419.058l-122.837-21.311v-969.375h122.837v410.059c33.588 16.289 78.156 41.618 132.154 103.491l339.932-513.549h133.074l-393.285 592.918c46.387 60.332 129.959 127.101 247.916 143.709zM2120.364 807.821v-850.251h652.236c-61.114 46.073-105.13 85.839-136.893 113.113h-393.017v158.053c75.19 25.022 206.59 29.423 272.301 3.634l-23.068 110.579c-65.104 27.794-152.987 35.332-249.233 11.557v339.69h316.44c-17.35 28.73-55.704 101.68-65.143 113.625h-373.622zM2892.274 785.152c-120.638 0.729-235.81-68.898-258.818-191.71-31.951-170.54 247.811-290.544 295.98-305.817 48.58-15.871 170.045-57.279 176.408-141.432-1.761-68.035-41.578-120.054-167.491-84.936-114.454 35.967-213.324 172.857-382.28 258.093l21.725-116.544c139.082-94.989 218.475-205.754 344.103-241.208 113.419-32.009 276.019-20.235 294.117 162.736 17.884 180.814-180.646 236.945-234.554 261.223-51.094 16.342-242.108 113.908-227.122 193.895 12.253 65.399 97.308 104.128 170.943 91.374 68.512-12.315 132.636-41.908 184.058-113.233l50.715 97.277c-70.565 73.625-126.742 109.799-215.974 125.475-17.202 3.028-34.573 4.705-51.807 4.81zM3255.635-42.431h122.837v733.833l-122.837 35.819v-769.653zM3667.873 68.634h-119.766v511.311h119.766c147.405 0 245.163-119.254 245.163-255.911 0-144.334-107.995-255.399-245.163-255.399zM3667.873 691.010h-242.093v-733.442h242.093c205.241 0 372.095 162.759 372.095 366.465 0 207.288-169.414 366.977-372.095 366.977zM4055.123 694.197v-736.627h508.053l-4.548 113.113h-381.178v233.839c127.967-34.151 210.157-20.343 286.109 0l-36.211 107.974c-83.045-19.513-157.405-18.681-249.898 5.652v162.426h346.649l-30.254 113.625h-438.72z" />
<glyph unicode="&#xe905;" glyph-name="fm3" horiz-adv-x="791" d="M395.114 960l-385.623-385.623 115.138-114.638c45.346 46.357 95.661 94.871 140.862 140.363l129.873-129.873 129.873 130.123 40.46-40.46c8.641-8.607 14.293-14.203 30.47-30.47l70.431-70.431 114.888 114.888-72.18 72.429-314.193 313.694zM791.227 557.393l-56.445-56.695-343.415-341.666-391.368 396.862v-402.607l172.581-3.247v0.5l223.282-214.54 9.241 9.491 215.29 204.55 170.833 3.247v404.105z" />
<glyph unicode="&#xe906;" glyph-name="weedmaps" d="M714.163 678.561c-15.057-0.217-26.333-2.43-38.982-7.396-13.333-5.233-29.21-16.46-41.196-29.121-5.933-6.267-11.116-11.405-11.531-11.405s-0.754 8.32-0.754 18.468c0 12.567-0.494 18.961-1.589 20.056-2.29 2.29-77.43 2.29-79.718 0-2.391-2.391-2.31-314.774 0.082-315.741 2.732-1.101 81.73-0.946 83.48 0.169 1.223 0.775 1.724 25.106 2.089 101.276 0.523 110.097 0.278 106.525 8.899 123.464 11.017 21.645 30.234 32.014 56.78 30.627 19.345-1.013 30.57-7.428 37.811-21.601 6.862-13.426 7.034-16.455 7.187-125.469 0.080-55.67 0.619-102.898 1.169-104.953l1.003-3.719 41.153-0.333c28.342-0.245 41.738 0.082 42.95 1.087 1.423 1.18 1.889 20.881 2.256 101.986 0.446 98.952 0.471 100.637 3.385 111.054 5.229 18.699 13.958 30.234 28.16 37.225 8.1 3.988 10.116 4.37 23.816 4.806 12.533 0.398 16.364 0.025 23.439-2.338 10.29-3.435 19.805-11.231 23.816-19.511 7.303-15.086 7.125-11.876 7.687-125.637 0.352-71.469 0.965-106.144 1.923-107.296 1.090-1.311 10.915-1.714 42.743-1.714h41.322l1.169 3.135c1.64 4.316 1.755 208.049 0.126 225.16-4.527 47.528-26.22 78.17-64.051 90.455-17.724 5.757-25.13 6.741-49.636 6.768-20.833 0.025-24.495-0.302-33.423-3.092-19.835-6.192-39.938-19.691-55.819-37.521-3.991-4.48-7.781-7.844-8.439-7.438s-3.923 4.922-7.226 10.028c-8.338 12.888-16.889 20.674-29.457 26.738-16.914 8.165-28.064 10.777-49.554 11.615-3.942 0.154-7.598 0.217-11.072 0.169zM46.751 670.745c-23.38 0-43.458-0.348-44.621-0.793s-2.13-1.493-2.13-2.299c0-0.802 15.1-48.998 33.549-107.126s35.362-111.423 37.561-118.407c2.201-6.986 4.797-15.109 5.806-18.048s4.628-14.372 8.023-25.404c10.712-34.812 14.117-44.582 15.753-45.249 0.874-0.357 20.914-0.696 44.539-0.754 32.838-0.082 43.271 0.268 44.331 1.546 0.763 0.917 11.778 42.583 24.444 92.586s24.316 95.995 25.904 102.197c1.589 6.199 3.587 11.499 4.429 11.782 0.848 0.283 2.141-1.782 2.884-4.595 2.54-9.643 17.664-66.61 21.057-79.301 1.867-6.986 9.917-37.32 17.884-67.393s15.283-55.163 16.252-55.777c2.273-1.442 85.431-1.483 87.697-0.043 0.943 0.6 4.74 10.686 8.439 22.395s11.75 37.21 17.884 56.699c27.086 86.087 56.092 178.138 64.679 205.228 6.645 20.968 8.919 29.894 7.937 31.086-1.048 1.273-11.384 1.671-43.245 1.671-36.268 0-42.132-0.269-43.955-2.089-1.157-1.157-2.089-2.379-2.089-2.715s-5.675-21.514-12.618-47.046c-6.943-25.533-19.319-71.085-27.491-101.237s-15.405-55.384-16.086-56.070c-0.682-0.686-1.618-0.889-2.048-0.459s-12.382 46.882-26.574 103.199c-14.192 56.318-26.569 103.302-27.491 104.411-1.427 1.722-7.658 2.004-42.114 2.004-30.759 0-40.769-0.399-41.781-1.671-0.734-0.917-6.265-21.826-12.285-46.462s-16.651-68.252-23.647-96.934c-15.168-62.172-16.278-66.181-17.84-66.181-1.557 0 3.164-16.945-47.588 170.97-5.435 20.123-10.56 37.418-11.405 38.438-1.252 1.507-9.444 1.839-44.037 1.839zM230.789 238.102c-0.090 0.004-0.158-0.021-0.207-0.043-2.783-1.141-39.875-52.705-39.192-54.481 1.638-4.266 42.101-31.791 70.442-47.923 72.658-41.353 150.202-65.477 226.62-70.485 23.774-1.559 26.249-1.547 49.51-0.043 28.516 1.844 40.295 3.338 64.132 8.063 60.978 12.085 123.424 36.816 181.833 72.074 26.89 16.232 54.148 35.998 54.148 39.232 0 1.919-36.79 51.927-39.192 53.271-0.869 0.486-5.503-1.51-10.28-4.429-76.422-46.725-199.69-71.535-317.539-63.925-87.851 5.67-172.192 28.822-227.792 62.505-5.776 3.499-11.162 6.143-12.492 6.183z" />
<glyph unicode="&#xe907;" glyph-name="bitcoin" horiz-adv-x="1025" d="M0.708 448.003q0.084 139.328 68.329 257.132t186.256 186.279 257.339 68.391 257.132-68.329 186.279-186.256 68.391-257.339-68.329-257.132-186.256-186.279-257.339-68.391-257.132 68.329-186.279 186.256-68.391 257.339zM294.385 235.232l75.997-0.046q7.203 0.741 21.11-0.013t20.117-0.26l-0.306-96.114 58.115-0.283-0.439 94.872q6.457-0.501 22.228-0.262t24.215 0.234l0.439-94.872 57.868 0.71-0.687 95.866q49.674 3.944 86.809 13.731t60.497 36.72 27.114 71.138q9.496 97.35-83.624 119.51 56.394 27.782 49.73 96.829-8.391 88.668-140.511 97.937l0.306 96.114-57.867-0.71-0.056-92.885q-8.444 0.005-24.215-0.234t-22.228 0.262l0.056 92.885-58.115 0.283 0.439-94.872q-15.399-1.729-36.757-0.723l-80.219 0.049 0.708-62.090 40.979 0.72q29.554-0.018 33.761-25.353l-0.314-108.78q1.987 0.496 6.457-0.501-1.241 0.746-3.228 0.25t-3.228 0.25l-0.092-151.994q-0.508-19.123-21.619-19.11l-42.221 0.025zM470.511 303.424l-0.171 127.655q0.994 0.248 20.366 0.857t29.554-0.018 30.050-2.005 31.538-5.855 24.953-11.191 19.857-18.266 6.317-27.447q-0.255-11.673-4.235-21.108t-11.931-15.639-16.647-11.539-22.233-8.182-23.721-4.332-24.837-1.972-22.477-0.856-20.49-0.36-15.895 0.258zM470.623 489.194l-0.427 115.983q3.228-0.25 13.163 0.116t17.261 0.61 19.123-0.508 20.488-1.751 19.99-3.986 17.629-7.213 14.771-10.564 10.049-14.907 3.341-19.746q0.24-13.66-5.106-23.963t-16.029-16.133-21.241-10.046-26.578-5.572-24.837-1.972-24.215-0.234-17.385-0.114z" />
<glyph unicode="&#xe908;" glyph-name="leafly" horiz-adv-x="899" d="M377.634 959.929c-56.601 0-102.227-45.626-102.227-102.227v-120.539h97.614c75.261 0 136.832-61.592 136.832-136.832v-12.833c5.244 0.617 10.599 1.009 16.005 1.009h217.72v269.194c0 56.601-45.482 102.227-102.084 102.227h-263.859zM109.305 702.56c-56.601 0-102.227-45.482-102.227-102.084v-413.667c0-56.601 45.626-102.227 102.227-102.227h263.859c5.511 0 10.88 0.465 16.149 1.297v365.798c0 57.365 35.654 106.777 85.935 127.027v21.628c0 0.048 0 0.097 0 0.145 0 5.258-0.395 10.389-1.154 15.428-0.007 0.047 0.007 0.097 0 0.145-0.25 1.648-0.537 3.282-0.866 4.903-0.009 0.046 0.009 0.099 0 0.145-0.669 3.286-1.621 6.499-2.595 9.66-0.013 0.043 0.013 0.1 0 0.145-0.483 1.558-1.032 3.089-1.586 4.614-0.016 0.042 0.016 0.102 0 0.145-1.143 3.133-2.462 6.104-3.893 9.084-0.696 1.451-1.401 2.915-2.163 4.325-0.020 0.037 0.020 0.108 0 0.145-0.764 1.412-1.623 2.811-2.451 4.182-0.020 0.033 0.020 0.11 0 0.145-0.851 1.404-1.823 2.679-2.739 4.037-2.749 4.075-5.791 7.91-9.084 11.534-2.196 2.416-4.505 4.725-6.921 6.921-3.626 3.293-7.459 6.335-11.534 9.084-1.393 0.939-2.74 1.868-4.182 2.739-1.369 0.831-2.77 1.684-4.182 2.451-0.038 0.020-0.107-0.020-0.145 0-1.448 0.785-2.836 1.446-4.325 2.163-2.979 1.432-5.951 2.75-9.084 3.893-0.042 0.016-0.101-0.016-0.145 0-1.524 0.556-3.056 1.101-4.614 1.586-0.043 0.013-0.101-0.013-0.145 0-1.602 0.496-3.123 1.022-4.758 1.442-1.68 0.431-3.334 0.808-5.046 1.154-1.62 0.33-3.255 0.612-4.903 0.866-0.047 0.007-0.098-0.007-0.145 0-1.695 0.258-3.325 0.403-5.046 0.576-3.443 0.347-6.844 0.576-10.381 0.576h-263.859zM526.144 553.904c-2.066 0-4.165-0.169-6.2-0.288-1.45-0.088-2.894-0.14-4.325-0.288-1.721-0.174-3.352-0.319-5.046-0.576-0.24-0.037-0.482-0.106-0.721-0.145-12.449-1.984-24.104-6.227-34.605-12.255-1.889-1.085-3.814-2.261-5.624-3.46-1.595-1.058-3.083-2.173-4.614-3.316-0.246-0.184-0.476-0.39-0.721-0.576-1.058-0.805-2.147-1.606-3.172-2.451-0.676-0.557-1.357-1.156-2.018-1.73-1.667-1.448-3.19-2.917-4.758-4.47-1.284-1.27-2.678-2.555-3.893-3.893-0.25-0.275-0.474-0.587-0.721-0.866-1.464-1.649-2.826-3.305-4.182-5.046-1.341-1.721-2.663-3.528-3.893-5.334-0.996-1.464-1.964-2.951-2.884-4.47-0.724-1.191-1.486-2.382-2.163-3.605-0.359-0.654-0.664-1.356-1.009-2.018-0.298-0.568-0.577-1.156-0.866-1.73-0.217-0.436-0.51-0.858-0.721-1.297-0.685-1.418-1.254-2.871-1.875-4.325-0.673-1.586-1.425-3.275-2.018-4.903-0.158-0.432-0.28-0.863-0.433-1.297-0.635-1.817-1.196-3.616-1.73-5.479-0.206-0.713-0.386-1.443-0.576-2.163-0.199-0.759-0.395-1.542-0.576-2.307-0.253-1.055-0.501-2.105-0.721-3.172-0.35-1.71-0.601-3.45-0.866-5.191-0.161-1.055-0.304-2.107-0.433-3.172-0.077-0.636-0.224-1.234-0.288-1.875-0.118-1.154-0.209-2.296-0.288-3.46-0.156-2.317-0.288-4.707-0.288-7.066v-413.524c0-56.601 45.626-102.227 102.227-102.227h263.859c56.601 0 102.084 45.626 102.084 102.227v413.524c0 56.601-45.482 102.227-102.084 102.227h-263.859z" />
<glyph unicode="&#xe909;" glyph-name="oneeighth" horiz-adv-x="1021" d="M125.279 432.54v0 288.811l-12.126 27.559c-7.348 9.553-11.758 20.577-13.228 33.070 0.735 15.432 8.818 29.763 24.251 42.991 14.698 13.227 33.805 20.209 57.321 20.944 32.335-4.41 48.503-17.638 48.503-39.684v-373.691c-0.735-31.6-17.638-47.768-50.708-48.503-36.010 1.47-54.014 17.637-54.014 48.503v0zM750.302 50.030v0c-51.443 1.47-92.597 16.535-123.461 45.196-30.131 28.66-45.564 63.567-46.298 104.722 2.204 45.563 20.209 81.205 54.014 106.927 5.144 5.144 5.511 10.288 1.101 15.433-18.373 15.433-29.029 40.418-31.967 74.959 5.879 78.633 54.749 119.419 146.61 122.359 44.093-0.001 79.368-11.023 105.824-33.070s40.051-51.81 40.786-89.289c-2.94-34.54-13.229-59.526-30.865-74.959-5.145-5.145-4.777-10.288 1.101-15.433 33.069-25.721 51.074-61.364 54.014-106.927-0.736-41.153-16.535-76.061-47.4-104.722s-72.019-43.726-123.461-45.196v0zM750.301 444.666v0c-32.336 0-50.34-15.433-54.014-46.298 4.409-31.601 22.413-47.4 54.014-47.4 33.069 0 51.074 15.799 54.014 47.4-2.94 30.865-20.945 46.298-54.014 46.298v0zM750.301 269.394v0c-44.829-2.205-68.346-23.149-70.549-62.833 2.939-41.154 26.455-63.201 70.549-66.14 45.562 2.94 69.446 24.986 71.652 66.14-2.206 39.683-26.089 60.627-71.652 62.833v0zM704.003 778.672v0l-472.901-706.596c-16.903-24.251-36.745-28.294-59.526-12.126-24.251 19.107-29.396 40.051-15.433 62.833l471.798 704.391c16.902 22.045 37.478 26.455 61.731 13.228 22.78-16.168 27.558-36.746 14.331-61.731v0 0 0z" />
<glyph unicode="&#xe90a;" glyph-name="onefourth" horiz-adv-x="1028" d="M124.956 432.538v0 288.84l-12.127 27.561c-7.35 9.553-11.759 20.579-13.229 33.073 0.735 15.434 8.819 29.766 24.253 42.996 14.699 13.228 33.808 20.211 57.327 20.946 32.338-4.411 48.507-17.64 48.508-39.688v-373.728c-0.735-31.604-17.639-47.773-50.713-48.508-36.014 1.47-54.020 17.639-54.020 48.508v0zM884.54 140.39v0l-5.512-5.512v-34.175c-2.941-32.339-20.58-49.243-52.918-50.713-33.074 2.94-49.978 19.844-50.713 50.713v34.175l-5.512 5.512h-155.444c-32.339 4.41-45.201 19.844-38.586 46.303 10.289 36.748 18.741 80.111 25.356 130.089 5.88 49.977 8.819 96.28 8.819 138.908 2.939 31.603 20.579 47.404 52.918 47.405 30.868 0.735 47.037-15.068 48.508-47.405 0.734-73.496-6.248-145.155-20.946-214.977-1.471-4.41-0.001-6.247 4.41-5.512h74.966l5.512 5.512v234.82c2.204 33.073 19.476 48.874 51.815 47.405 34.543 0.735 51.814-15.068 51.815-47.405v-234.82c-0.736-4.41 1.102-6.247 5.512-5.512 26.457-5.145 40.422-20.579 41.893-46.303 1.469-25.723-12.495-41.893-41.893-48.508v0zM703.739 778.705v0l-472.949-706.667c-16.904-24.253-36.749-28.296-59.532-12.127-24.253 19.109-29.398 40.055-15.434 62.839l471.845 704.462c16.904 22.049 37.483 26.458 61.737 13.229 22.783-16.17 27.561-36.749 14.332-61.737v0 0 0z" />
<glyph unicode="&#xe90b;" glyph-name="onehalf" horiz-adv-x="1006" d="M125.915 432.54v0 288.801l-12.125 27.558c-7.348 9.553-11.758 20.575-13.228 33.069 0.735 15.431 8.818 29.763 24.251 42.989 14.698 13.227 33.804 20.208 57.319 20.943 32.334-4.41 48.501-17.637 48.501-39.683v-373.678c-0.735-32.335-17.637-48.869-50.706-49.602-36.008 1.47-54.012 18.004-54.012 49.602v0zM702.414 159.171v0c-3.675-3.675-2.94-6.614 2.205-8.818h148.808c32.333 0.735 48.133-13.963 47.399-44.092 2.204-31.599-13.596-48.501-47.399-50.706h-220.459c-32.335-2.94-47.031 12.86-44.092 47.399v38.581c-0.001 27.19 7.716 45.561 23.148 55.114l141.094 110.229c26.454 19.841 39.316 42.989 38.581 69.443-0.001 35.275-17.637 53.277-52.91 54.012-19.842-0.735-33.805-10.655-41.887-29.763l-16.534-39.683c-7.349-11.758-22.047-18.005-44.092-18.739-32.335 1.47-49.236 17.636-50.706 48.501 0.734 35.275 15.431 65.402 44.092 90.388 28.659 24.251 65.77 37.11 111.331 38.581 49.97-0.735 89.284-14.33 117.946-40.785 28.659-25.72 42.989-59.157 42.989-100.308 2.204-56.584-27.558-104.349-89.287-143.299l-110.229-76.058zM704.619 778.659v0l-472.884-707.673c-16.902-23.516-36.743-27.558-59.524-12.125-24.251 19.106-29.395 40.049-15.434 62.831l471.78 705.468c16.901 22.045 37.477 26.454 61.729 13.228 22.78-16.167 27.557-36.744 14.33-61.729v0 0 0z" />
<glyph unicode="&#xe90c;" glyph-name="onegram" horiz-adv-x="713" d="M481.602 378.12c-16.116 0-33.941-2.161-51.797-7.902s-35.743-15.058-51.797-28.532c-8.028-6.737-15.656-14.714-22.389-23.703s-12.597-18.965-17.559-30.288c-4.962-11.323-8.695-24.014-11.413-37.75s-4.39-28.544-4.39-44.774c0-25.836 3.568-49.554 10.974-70.674 3.703-10.56 8.511-20.689 14.049-29.85s11.958-17.409 19.315-25.021c7.355-7.614 15.573-14.361 24.582-20.192s18.891-10.959 29.411-14.925c21.039-7.936 44.875-11.852 71.112-11.852 19.366 0 45.879 6.25 49.407 4.34 5.631-5.336 0.14-17.781-1.999-27.166-2.134-9.386-5.294-17.176-9.657-23.264-5.517-7.698-13.126-14.106-24.144-18.437s-25.441-6.584-45.213-6.584c-12.807 0-25.944 2.094-38.189 4.829s-23.601 6.111-32.922 9.219l-12.729 4.39c-55.956 12.624-66.876-66.249-30.729-81.208l11.413-4.829v-0.438c20.499-7.935 40.84-13.288 59.699-16.68s36.238-4.829 51.359-4.829c17.449 0 33.252 1.579 47.846 4.39s28.074 6.663 39.946 11.852c11.874 5.19 22.321 11.739 31.605 18.876s17.313 15.050 24.144 23.703c13.66 17.307 22.619 36.744 28.093 56.626s7.464 40.216 7.464 59.259v324.831c-9.4 19.010-93.843 20.889-98.63-6.699-4.119 0.213-11.075 3.931-20.769 6.699-14.019 3.957-29.329 6.584-46.091 6.584zM502.672 288.572c18.635 0.056 32.189-0.012 35.985-12.513 12.675-37.255 10.23-129.045 2.961-142.137-4.53-8.157-23.923-15.084-36.313-15.228-11.499 0-21.858 1.504-31.166 4.39s-17.567 7.15-24.144 13.169c-6.579 6.019-11.959 14.085-15.804 24.582s-6.145 23.424-6.145 39.946c0 18.625 1.989 33.287 5.706 44.774s9.164 19.802 15.364 25.899c6.2 6.096 13.884 10.414 22.827 13.169s19.142 3.951 30.729 3.951zM177.402 832.001c-30.024-0.716-56.414-9.621-78.574-26.776-21.445-16.442-32.207-36.55-32.922-60.138 1.429-20.016 7.111-35.695 17.119-47.846s15.69-25.812 17.119-40.824v-524.56c-2.144-47.894 18.891-72.153 63.21-72.867 42.89-0.715 64.691 23.544 65.406 72.867v638.249c2.144 35.74-14.904 56.174-51.359 61.894z" />
<glyph unicode="&#xe90d;" glyph-name="oneounce" horiz-adv-x="1142" d="M224.087 846.599c-30.498-0.727-56.861-9.772-79.371-27.199-21.783-16.701-33.163-37.126-33.888-61.090 1.452-20.333 7.224-36.706 17.39-49.049 10.167-12.346 15.938-26.221 17.39-41.469v-532.41c-2.178-48.65 19.189-73.294 64.209-74.021 43.567-0.727 65.713 23.917 66.439 74.021v647.899c2.178 36.305-15.139 57.508-52.172 63.32zM552.72 386.425c-42.146 0.94-79.28-11.193-107.464-34.336-32.207-26.447-52.956-66.672-58.414-116.381-5.424-49.383 6.085-93.192 31.658-125.745s65.29-53.842 115.043-59.306c49.769-5.465 93.546 7.081 125.745 33.442s52.543 66.535 57.966 115.936c5.455 49.676-5.724 93.553-31.213 126.191s-64.979 53.807-115.043 59.306c-6.222 0.683-12.262 0.756-18.281 0.891zM773.887 380.182c-6.334 0.1-10.208-1.938-10.256-7.58v-64.209c0.264-6.45 0.894-7.938 8.027-8.918l126.637 2.229c3.597-0.115 4.718-4.989 1.338-8.918l-129.758-181.036c-2.332-3.247-4.479-5.935-4.459-13.822l-1.784-28.983c-0.511-11.352 7.188-12.377 11.147-12.931 85.070 1.409 166.669 0.944 247.031 0 8.962-0.044 9.367-1.073 9.363 7.134l-2.675 66.439c0.056 7.582-4.756 6.421-7.134 7.134-10.481 1.425-86.128-1.946-122.177-1.338-4.952-0.159-8.803 3.217-7.58 7.58l128.42 184.606c1.675 2.062 2.174 4.681 2.229 8.027v37.456c0.198 5.624-2.694 7.208-7.134 7.134h-241.235zM554.949 311.959c2.388-0.013 4.709-0.181 7.134-0.446 19.787-2.174 36.79-12.089 48.157-28.983s21.751-41.989 18.281-73.573c-3.47-31.608-18.871-53.354-33.442-66.884s-33.269-18.721-53.508-16.498c-19.86 2.18-34.996 10.709-46.374 27.199s-16.362 40.983-12.931 72.237c3.43 31.232 12.325 54.104 27.199 68.224 13.016 12.356 28.758 18.814 45.484 18.728z" />
<glyph unicode="&#xe90e;" horiz-adv-x="2140" d="M1522.398 58.779v-37.929h-37.929v-37.929h37.929v-37.929h37.929v37.929h37.827v37.929h-37.827v37.929h-37.929z" />
<glyph unicode="&#xe90f;" horiz-adv-x="2140" d="M-0.005 519.264v-344.43h234.981l24.984 53.284h-202.36v291.146h-57.605z" />
<glyph unicode="&#xe910;" horiz-adv-x="2140" d="M426.77 570.691l-170.427-395.857h61.312l46.715 103.353c43.922 1.045 133.313 21.074 170.063 46.979l64.884-150.332h63.444c-55.814 129.765-113.653 266.936-176.166 411.967zM458.033 515.036l55.607-141.853c-34.268-27.61-97.824-41.951-132.3-41.936l76.693 183.789z" />
<glyph unicode="&#xe911;" horiz-adv-x="2140" d="M908.856 568.591c-126.237-25.238-154.824-103.495-193.771-125.69v196.519l-57.605-9.994v-454.591h57.605v192.298c15.751 7.639 36.652 19.517 61.975 48.532l159.412-240.831h62.405l-184.431 278.050c21.753 28.293 60.944 59.604 116.262 67.392z" />
<glyph unicode="&#xe912;" horiz-adv-x="2140" d="M994.442 573.563v-398.728h305.868c-28.66 21.606-49.302 40.255-64.197 53.044h-184.307v74.12c35.26 11.735 96.881 13.798 127.697 1.704l-10.818 51.857c-30.531 13.034-71.743 16.569-116.879 5.42v159.299h148.395c-8.136 13.473-26.122 47.683-30.549 53.285h-175.211z" />
<glyph unicode="&#xe913;" horiz-adv-x="2140" d="M1356.431 562.932c-56.574 0.342-110.584-32.309-121.374-89.903-14.983-79.976 116.212-136.251 138.801-143.414 22.781-7.443 79.743-26.861 82.727-66.325-0.825-31.905-19.499-56.299-78.545-39.832-53.674 16.866-100.039 81.062-179.271 121.033l10.188-54.653c65.223-44.546 102.455-96.488 161.369-113.115 53.188-15.011 129.44-9.489 137.926 76.315 8.387 84.794-84.714 111.116-109.995 122.502-23.961 7.663-113.538 53.417-106.51 90.928 5.746 30.669 45.632 48.831 80.165 42.85 32.129-5.775 62.2-19.653 86.315-53.101l23.782 45.618c-33.091 34.527-59.436 51.49-101.281 58.842-8.067 1.42-16.214 2.207-24.295 2.256z" />
<glyph unicode="&#xe914;" horiz-adv-x="2140" d="M1526.831 174.834h57.605v344.134l-57.605 16.797v-360.932z" />
<glyph unicode="&#xe915;" horiz-adv-x="2140" d="M1720.152 226.919h-56.165v239.78h56.165c69.126 0 114.97-55.924 114.97-120.010 0-67.686-50.645-119.771-114.97-119.771zM1720.152 518.785h-113.53v-343.95h113.53c96.248 0 174.495 76.326 174.495 171.855 0 97.209-79.447 172.095-174.495 172.095z" />
<glyph unicode="&#xe916;" horiz-adv-x="2140" d="M1901.753 520.278v-345.444h238.252l-2.133 53.044h-178.755v109.659c60.010-16.015 98.554-9.54 134.171 0l-16.981 50.635c-38.944-9.151-73.815-8.761-117.19 2.65v76.17h162.562l-14.188 53.285h-205.739z" />
<glyph unicode="&#xe917;" horiz-adv-x="2140" d="M105.601-52.902v47.709h-53.367v-47.709h-17.126v108.569h17.126v-45.416h53.367v45.416h17.126v-108.569h-17.126z" />
<glyph unicode="&#xe918;" horiz-adv-x="2140" d="M184.063-52.902v108.569h71.717l2.6-15.444h-57.19v-27.831h46.945l2.752-15.903h-49.698v-33.794h57.037l-2.752-15.597h-71.411z" />
<glyph unicode="&#xe919;" horiz-adv-x="2140" d="M333.121-7.64v-45.262h-17.126v108.569h35.323c12.029 0 21.764-2.956 29.206-8.869 7.543-5.811 11.316-13.406 11.316-22.785 0-7.543-2.497-14.017-7.493-19.42-4.893-5.301-11.57-8.92-20.032-10.857l37.617-46.639h-20.796l-34.406 45.262h-13.61zM374.714 24.013c0 10.806-8.461 16.209-25.384 16.209h-16.209v-32.265h16.209c16.922 0 25.383 5.352 25.384 16.056z" />
<glyph unicode="&#xe91a;" horiz-adv-x="2140" d="M493.331-52.902h-38.534v108.569h34.559c11.724 0 21.051-2.497 27.983-7.493s10.398-12.029 10.398-21.102c0-6.32-1.886-11.52-5.658-15.597-3.67-4.078-8.665-6.627-14.985-7.646 8.156-1.019 14.374-3.874 18.656-8.564 4.383-4.587 6.575-10.398 6.575-17.432 0-8.156-3.721-15.343-11.162-21.561-7.34-6.116-16.617-9.175-27.831-9.175zM511.374 25.236c0 5.097-2.039 8.869-6.116 11.316s-10.551 3.67-19.42 3.67h-13.915v-29.818h13.915c8.869 0 15.343 1.223 19.42 3.67s6.116 6.167 6.116 11.162zM515.35-20.791c0 5.811-1.988 9.991-5.964 12.539-3.874 2.65-10.296 3.975-19.267 3.975h-18.197v-33.029h18.197c8.971 0 15.393 1.274 19.267 3.823 3.975 2.549 5.964 6.779 5.964 12.692z" />
<glyph unicode="&#xe91b;" glyph-name="connection" horiz-adv-x="1280" d="M640 384c105.87 0 201.87-43.066 271.402-112.598l-90.468-90.468c-46.354 46.356-110.356 75.066-180.934 75.066s-134.578-28.71-180.934-75.066l-90.468 90.468c69.532 69.532 165.532 112.598 271.402 112.598zM187.452 452.548c120.88 120.88 281.598 187.452 452.548 187.452s331.668-66.572 452.55-187.452l-90.51-90.508c-96.706 96.704-225.28 149.96-362.040 149.96-136.762 0-265.334-53.256-362.038-149.962l-90.51 90.51zM988.784 825.562c106.702-45.132 202.516-109.728 284.782-191.996v0l-90.508-90.508c-145.056 145.056-337.92 224.942-543.058 224.942-205.14 0-398-79.886-543.058-224.942l-90.51 90.51c82.268 82.266 178.082 146.862 284.784 191.994 110.504 46.738 227.852 70.438 348.784 70.438s238.278-23.7 348.784-70.438zM576 64c0 35.346 28.654 64 64 64s64-28.654 64-64c0-35.346-28.654-64-64-64s-64 28.654-64 64z" />
<glyph unicode="&#xe91c;" horiz-adv-x="2140" d="M604.335-31.648v0.306l-7.798-21.561h-17.585l41.134 107.499 16.515 1.835 41.134-109.333h-18.349l-9.48 26.301-45.568-5.046zM627.884 33.953l-17.585-48.78 33.947 3.823-16.362 44.957z" />
<glyph unicode="&#xe91d;" horiz-adv-x="2140" d="M801.981-37.306v-15.597h-69.881v108.569h17.126v-92.971h52.755z" />
<glyph unicode="&#xe91e;" horiz-adv-x="2140" d="M1000.643 48.174l3.364-19.726c-5.811 4.485-11.214 7.646-16.209 9.48-4.995 1.937-10.449 2.905-16.362 2.905-13.966 0-20.949-4.129-20.949-12.386 0-2.141 0.356-4.027 1.070-5.658 0.815-1.53 2.141-2.905 3.976-4.129s3.415-2.141 4.741-2.752c1.427-0.611 3.619-1.478 6.575-2.6l16.821-6.116c9.175-3.364 15.903-7.391 20.185-12.080 4.383-4.69 6.575-10.704 6.575-18.044 0-9.073-3.721-16.77-11.162-23.090-7.442-6.219-17.126-9.328-29.054-9.328-5.709 0-12.080 1.172-19.114 3.517-6.932 2.446-12.692 5.454-17.279 9.022l-3.517 22.020c5.301-5.301 11.672-9.684 19.114-13.151 7.442-3.364 14.323-5.046 20.644-5.046 7.034 0 12.539 1.326 16.515 3.975 4.078 2.65 6.116 6.168 6.116 10.551 0 4.282-1.274 7.697-3.823 10.246s-7.595 5.198-15.139 7.951l-16.821 6.116c-8.156 3.059-14.221 6.728-18.197 11.010-3.976 4.383-5.964 10.042-5.964 16.973 0 9.073 3.466 16.209 10.398 21.408s16.158 7.798 27.677 7.798c10.602 0 20.541-2.956 29.818-8.869z" />
<glyph unicode="&#xe91f;" horiz-adv-x="2140" d="M1170.943 21.566c2.446-6.524 3.67-13.252 3.67-20.185s-1.223-13.661-3.67-20.185c-2.446-6.524-5.964-12.488-10.551-17.891-4.486-5.301-10.296-9.583-17.432-12.844-7.136-3.16-15.037-4.741-23.702-4.741-11.52 0-21.612 2.752-30.277 8.257-8.564 5.607-14.935 12.539-19.114 20.797-4.078 8.36-6.116 17.228-6.116 26.608s2.038 18.197 6.116 26.454c4.179 8.36 10.551 15.292 19.114 20.796 8.665 5.607 18.758 8.41 30.277 8.41 8.665 0 16.566-1.631 23.702-4.893 7.136-3.16 12.947-7.442 17.432-12.844 4.587-5.301 8.105-11.214 10.551-17.738zM1146.477-27.214c6.83 7.646 10.246 17.177 10.246 28.595s-3.415 20.949-10.246 28.595c-6.728 7.646-15.801 11.469-27.219 11.469-11.52 0-20.644-3.823-27.372-11.469s-10.092-17.177-10.092-28.595c0-11.418 3.364-20.949 10.092-28.595s15.852-11.469 27.372-11.469c11.417 0 20.49 3.823 27.219 11.469z" />
<glyph unicode="&#xe920;" horiz-adv-x="2140" d="M1302.232-37.306v-15.597h-69.881v108.569h17.126v-92.971h52.755z" />
<glyph unicode="&#xe921;" glyph-name="library" horiz-adv-x="1088" d="M1024 0v64h-64v384h64v64h-192v-64h64v-384h-192v384h64v64h-192v-64h64v-384h-192v384h64v64h-192v-64h64v-384h-192v384h64v64h-192v-64h64v-384h-64v-64h-64v-64h1088v64h-64zM512 960h64l512-320v-64h-1088v64l512 320z" />
<glyph unicode="&#xe922;" horiz-adv-x="2140" d="M1356.015 55.666h17.126v-62.389c0-9.787 2.446-17.636 7.339-23.549 4.893-5.811 11.825-8.716 20.796-8.716 8.869 0 15.75 2.905 20.644 8.716 4.893 5.913 7.339 13.762 7.339 23.549v62.389h17.126v-59.637c0-15.597-3.874-27.983-11.621-37.158-7.646-9.073-18.808-13.61-33.488-13.61-14.781 0-26.046 4.537-33.794 13.61-7.646 9.175-11.469 21.56-11.469 37.158v59.637z" />
<glyph unicode="&#xe923;" horiz-adv-x="2140" d="M1641.287-52.902v108.569h17.126v-108.569h-17.126z" />
<glyph unicode="&#xe924;" horiz-adv-x="2140" d="M1823.435 21.566c2.446-6.524 3.67-13.252 3.67-20.185s-1.223-13.661-3.67-20.185c-2.446-6.524-5.964-12.488-10.551-17.891-4.486-5.301-10.296-9.583-17.432-12.844-7.136-3.16-15.037-4.741-23.702-4.741-11.52 0-21.612 2.752-30.277 8.257-8.564 5.607-14.935 12.539-19.114 20.797-4.078 8.36-6.116 17.228-6.116 26.608s2.038 18.197 6.116 26.454c4.179 8.36 10.551 15.292 19.114 20.796 8.665 5.607 18.758 8.41 30.277 8.41 8.665 0 16.566-1.631 23.702-4.893 7.136-3.16 12.947-7.442 17.432-12.844 4.587-5.301 8.105-11.214 10.551-17.738zM1798.968-27.214c6.83 7.646 10.246 17.177 10.246 28.595s-3.415 20.949-10.246 28.595c-6.728 7.646-15.801 11.469-27.219 11.469-11.52 0-20.644-3.823-27.372-11.469s-10.092-17.177-10.092-28.595c0-11.418 3.364-20.949 10.092-28.595s15.852-11.469 27.372-11.469c11.418 0 20.49 3.823 27.219 11.469z" />
<glyph unicode="&#xe925;" horiz-adv-x="2140" d="M1974.297 55.666v-108.569h-18.349l-55.66 83.338 1.835-83.338h-17.279v108.569h18.349l55.66-83.338-1.835 83.338h17.279z" />
<glyph unicode="&#xe926;" horiz-adv-x="2140" d="M2101.495 48.174l3.364-19.726c-5.811 4.485-11.214 7.646-16.209 9.48-4.995 1.937-10.45 2.905-16.362 2.905-13.966 0-20.949-4.129-20.949-12.386 0-2.141 0.356-4.027 1.070-5.658 0.815-1.53 2.141-2.905 3.975-4.129s3.415-2.141 4.741-2.752c1.427-0.611 3.619-1.478 6.575-2.6l16.821-6.116c9.175-3.364 15.903-7.391 20.185-12.080 4.383-4.69 6.575-10.704 6.575-18.044 0-9.073-3.721-16.77-11.163-23.090-7.442-6.219-17.126-9.328-29.054-9.328-5.709 0-12.080 1.172-19.114 3.517-6.932 2.446-12.692 5.454-17.279 9.022l-3.517 22.020c5.301-5.301 11.672-9.684 19.114-13.151 7.442-3.364 14.322-5.046 20.644-5.046 7.034 0 12.539 1.326 16.515 3.975 4.078 2.65 6.116 6.168 6.116 10.551 0 4.282-1.274 7.697-3.823 10.246s-7.595 5.198-15.139 7.951l-16.821 6.116c-8.156 3.059-14.221 6.728-18.197 11.010-3.975 4.383-5.964 10.042-5.964 16.973 0 9.073 3.466 16.209 10.398 21.408s16.158 7.798 27.677 7.798c10.602 0 20.541-2.956 29.818-8.869z" />
<glyph unicode="&#xe927;" horiz-adv-x="2140" d="M1050.553 951.349c-22.444-4.919-55.697-12.914-61.296-13.25-2.384-3.043-56.142-32.615-61.52-33.849-12.455 4.581-29.875 18.455-35.353 19.096-4.066 0.476-190.627-97.661-193.632-99.099-2.636 1.846-125.029 55.701-127.116 56.336-19.025-5.345-36.085-9.819-57.108-16.138-16.288-4.896-46.731-9.491-53.558-11.135-52.807-24.492-232.672-111.745-240.064-115.356-3.679-0.224-42.162 4.225-49.773 2.951-5.056-0.847-36.246-24.289-38.304-25.443-31.344-14.336-51.944-22.293-80.226-36.243-13.344-10.985-31.882-24.995-40.53-29.563 14.34-2.305 93.021-12.325 99.447-11.328 5.322 3.775 74.078 52.666 77.055 53.928 2.988 1.266 54.711-9.869 59.509-9.582 6.707 3.144 40.126 20.307 43.731 21.309 5.809 4.523 44.246 37.934 50.681 42.434 3.796 1.277 57.742 31.104 66.363 35.687 5.173 2.751 47.838 36.184 56.771 39.759 16.833 4.235 38.782 4.3 53.999 9.923 6.464 2.389 27.429 10.967 34.121 10.331 14.389-4.943 149.26-71.648 153.408-72.929 2.775 0.107 43.48 22.675 47.879 22.938 19.579 9.645 131.582 91.766 133.283 92.974 2.089 1.485 26.526-16.576 43.759-23.272 9.289 5.597 54.214 30.595 64.303 35.575 4.299 1.108 45.353 15.829 53.224 16.814 14.432-6.594 92.685-36.53 114.855-48.603 28.814-13.896 56.734-21.319 82.015-35.879 47.745-27.498 110.543-59.323 141.172-80.67-8.503-2.236-21.646-1.686-40.599-7.062-62.42-17.705-146.1-36.739-148.384-38.023-2.152-1.209-45.812-30.163-50.22-37.121 15.228-6 50.182-24.614 62.272-29.86l45.015 25.896c8.304 3.036 66.591 26.665 68.961 28.002 3.483 1.966 43.114 9.142 49.818 12.854 7.115 3.939 54.652 16.931 66.148 18.56 9.846 3.4 171.547 46.464 175.239 47.786 35.555-7.435 96.883-24.211 108.020-26.702 10.084-2.256 80.738-22.616 119.373-32.553 3.638-0.928 9.134-2.548 10.299-2.951 2.803-0.968 7.164-2.304 10.745-3.285 15.24-5.383 153.381-51.171 165.072-55.562 22.817-8.972 44.328-17.855 75.493-25.665l-33.666 30.141c-64.663 22.417-154.702 58.341-213.103 77.606-8.971 4.732-213.562 61.679-218.664 62.892-9.311 2.213-24.117 3.905-36.244 9.186-0.373 0.013-0.74 0.026-1.114 0-43.26-13.561-160.254-41.046-166.353-41.867-4.915-0.662-9.451-1.535-13.584-2.561-37.8 23.418-96.796 56.994-131.278 79.279-0.895 1.562-33.104 19.227-35.519 20.933-9.341 3.797-75.674 38.859-86.127 43.537-35.46 15.301-82.695 37.74-118.696 48.826z" />
<glyph unicode="&#xe938;" glyph-name="qrcode" d="M320 896h-256v-256h256v256zM384 960v0-384h-384v384h384zM128 832h128v-128h-128zM960 896h-256v-256h256v256zM1024 960v0-384h-384v384h384zM768 832h128v-128h-128zM320 256h-256v-256h256v256zM384 320v0-384h-384v384h384zM128 192h128v-128h-128zM448 960h64v-64h-64zM512 896h64v-64h-64zM448 832h64v-64h-64zM512 768h64v-64h-64zM448 704h64v-64h-64zM512 640h64v-64h-64zM448 576h64v-64h-64zM448 448h64v-64h-64zM512 384h64v-64h-64zM448 320h64v-64h-64zM512 256h64v-64h-64zM448 192h64v-64h-64zM512 128h64v-64h-64zM448 64h64v-64h-64zM512 0h64v-64h-64zM960 448h64v-64h-64zM64 448h64v-64h-64zM128 512h64v-64h-64zM0 512h64v-64h-64zM256 512h64v-64h-64zM320 448h64v-64h-64zM384 512h64v-64h-64zM576 448h64v-64h-64zM640 512h64v-64h-64zM704 448h64v-64h-64zM768 512h64v-64h-64zM832 448h64v-64h-64zM896 512h64v-64h-64zM960 320h64v-64h-64zM576 320h64v-64h-64zM640 384h64v-64h-64zM704 320h64v-64h-64zM832 320h64v-64h-64zM896 384h64v-64h-64zM960 192h64v-64h-64zM576 192h64v-64h-64zM640 256h64v-64h-64zM768 256h64v-64h-64zM832 192h64v-64h-64zM896 256h64v-64h-64zM960 64h64v-64h-64zM640 128h64v-64h-64zM704 64h64v-64h-64zM768 128h64v-64h-64zM832 64h64v-64h-64zM640 0h64v-64h-64zM768 0h64v-64h-64zM896 0h64v-64h-64z" />
<glyph unicode="&#xe93b;" glyph-name="coin-dollar" d="M480 896c-265.096 0-480-214.904-480-480 0-265.098 214.904-480 480-480 265.098 0 480 214.902 480 480 0 265.096-214.902 480-480 480zM480 32c-212.078 0-384 171.922-384 384s171.922 384 384 384c212.078 0 384-171.922 384-384s-171.922-384-384-384zM512 448v128h128v64h-128v64h-64v-64h-128v-256h128v-128h-128v-64h128v-64h64v64h128.002l-0.002 256h-128zM448 448h-64v128h64v-128zM576.002 256h-64.002v128h64.002v-128z" />
<glyph unicode="&#xe93f;" glyph-name="credit-card" d="M928 832h-832c-52.8 0-96-43.2-96-96v-576c0-52.8 43.2-96 96-96h832c52.8 0 96 43.2 96 96v576c0 52.8-43.2 96-96 96zM96 768h832c17.346 0 32-14.654 32-32v-96h-896v96c0 17.346 14.654 32 32 32zM928 128h-832c-17.346 0-32 14.654-32 32v288h896v-288c0-17.346-14.654-32-32-32zM128 320h64v-128h-64zM256 320h64v-128h-64zM384 320h64v-128h-64z" />
<glyph unicode="&#xe947;" glyph-name="location" d="M512 960c-176.732 0-320-143.268-320-320 0-320 320-704 320-704s320 384 320 704c0 176.732-143.27 320-320 320zM512 448c-106.040 0-192 85.96-192 192s85.96 192 192 192 192-85.96 192-192-85.96-192-192-192z" />
<glyph unicode="&#xe977;" glyph-name="quotes-left" d="M225 512c123.712 0 224-100.29 224-224 0-123.712-100.288-224-224-224s-224 100.288-224 224l-1 32c0 247.424 200.576 448 448 448v-128c-85.474 0-165.834-33.286-226.274-93.726-11.634-11.636-22.252-24.016-31.83-37.020 11.438 1.8 23.16 2.746 35.104 2.746zM801 512c123.71 0 224-100.29 224-224 0-123.712-100.29-224-224-224s-224 100.288-224 224l-1 32c0 247.424 200.576 448 448 448v-128c-85.474 0-165.834-33.286-226.274-93.726-11.636-11.636-22.254-24.016-31.832-37.020 11.44 1.8 23.16 2.746 35.106 2.746z" />
<glyph unicode="&#xe978;" glyph-name="quotes-right" d="M800 320c-123.712 0-224 100.29-224 224 0 123.712 100.288 224 224 224s224-100.288 224-224l1-32c0-247.424-200.576-448-448-448v128c85.474 0 165.834 33.286 226.274 93.726 11.634 11.636 22.252 24.016 31.83 37.020-11.438-1.8-23.16-2.746-35.104-2.746zM224 320c-123.71 0-224 100.29-224 224 0 123.712 100.29 224 224 224s224-100.288 224-224l1-32c0-247.424-200.576-448-448-448v128c85.474 0 165.834 33.286 226.274 93.726 11.636 11.636 22.254 24.016 31.832 37.020-11.44-1.8-23.16-2.746-35.106-2.746z" />
<glyph unicode="&#xe97b;" glyph-name="spinner2" d="M1024 448c-1.278 66.862-15.784 133.516-42.576 194.462-26.704 61-65.462 116.258-113.042 161.92-47.552 45.696-103.944 81.82-164.984 105.652-61.004 23.924-126.596 35.352-191.398 33.966-64.81-1.282-129.332-15.374-188.334-41.356-59.048-25.896-112.542-63.47-156.734-109.576-44.224-46.082-79.16-100.708-102.186-159.798-23.114-59.062-34.128-122.52-32.746-185.27 1.286-62.76 14.964-125.148 40.134-182.206 25.088-57.1 61.476-108.828 106.11-151.548 44.61-42.754 97.472-76.504 154.614-98.72 57.118-22.304 118.446-32.902 179.142-31.526 60.708 1.29 120.962 14.554 176.076 38.914 55.15 24.282 105.116 59.48 146.366 102.644 41.282 43.14 73.844 94.236 95.254 149.43 13.034 33.458 21.88 68.4 26.542 103.798 1.246-0.072 2.498-0.12 3.762-0.12 35.346 0 64 28.652 64 64 0 1.796-0.094 3.572-0.238 5.332h0.238zM922.306 278.052c-23.472-53.202-57.484-101.4-99.178-141.18-41.67-39.81-91-71.186-144.244-91.79-53.228-20.678-110.29-30.452-166.884-29.082-56.604 1.298-112.596 13.736-163.82 36.474-51.25 22.666-97.684 55.49-135.994 95.712-38.338 40.198-68.528 87.764-88.322 139.058-19.87 51.284-29.228 106.214-27.864 160.756 1.302 54.552 13.328 108.412 35.254 157.69 21.858 49.3 53.498 93.97 92.246 130.81 38.73 36.868 84.53 65.87 133.874 84.856 49.338 19.060 102.136 28.006 154.626 26.644 52.5-1.306 104.228-12.918 151.562-34.034 47.352-21.050 90.256-51.502 125.624-88.782 35.396-37.258 63.21-81.294 81.39-128.688 18.248-47.392 26.782-98.058 25.424-148.496h0.238c-0.144-1.76-0.238-3.536-0.238-5.332 0-33.012 24.992-60.174 57.086-63.624-6.224-34.822-16.53-68.818-30.78-100.992z" />
<glyph unicode="&#xe98d;" glyph-name="key" d="M704 960c-176.73 0-320-143.268-320-320 0-20.026 1.858-39.616 5.376-58.624l-389.376-389.376v-192c0-35.346 28.654-64 64-64h64v64h128v128h128v128h128l83.042 83.042c34.010-12.316 70.696-19.042 108.958-19.042 176.73 0 320 143.268 320 320s-143.27 320-320 320zM799.874 639.874c-53.020 0-96 42.98-96 96s42.98 96 96 96 96-42.98 96-96-42.98-96-96-96z" />
<glyph unicode="&#xe98f;" glyph-name="lock" d="M592 512h-16v192c0 105.87-86.13 192-192 192h-128c-105.87 0-192-86.13-192-192v-192h-16c-26.4 0-48-21.6-48-48v-480c0-26.4 21.6-48 48-48h544c26.4 0 48 21.6 48 48v480c0 26.4-21.6 48-48 48zM192 704c0 35.29 28.71 64 64 64h128c35.29 0 64-28.71 64-64v-192h-256v192z" />
<glyph unicode="&#xe9a4;" glyph-name="leaf" d="M1011.328 825.504c-110.752 83.928-281.184 134.034-455.91 134.034-216.12 0-392.226-75.456-483.16-207.020-42.708-61.79-66.33-134.958-70.208-217.474-3.454-73.474 8.884-154.726 36.684-242.146 94.874 284.384 359.82 507.102 665.266 507.102 0 0-285.826-75.232-465.524-308.192-0.112-0.138-2.494-3.090-6.614-8.698-36.080-48.278-67.538-103.162-91.078-165.328-39.87-94.83-76.784-224.948-76.784-381.782h128c0 0-19.43 122.222 14.36 262.79 55.89-7.556 105.858-11.306 150.852-11.306 117.678 0 201.37 25.46 263.388 80.124 55.568 48.978 86.198 114.786 118.624 184.456 49.524 106.408 105.654 227.010 268.654 320.152 9.33 5.332 15.362 14.992 16.056 25.716s-4.040 21.080-12.606 27.572z" />
<glyph unicode="&#xe9a8;" glyph-name="hammer2" d="M1010.174 44.25l-548.634 499.458 25.534 25.598c20.894 20.954 32.188 48.030 33.918 75.61 1.002 0.45 2.002 0.912 2.958 1.442l102.99 64.402c13.934 16.392 12.916 42.268-2.284 57.502l-179.12 179.608c-15.19 15.234-40.998 16.262-57.344 2.284l-64.236-103.268c-0.526-0.966-0.99-1.966-1.44-2.974-27.502-1.736-54.5-13.056-75.398-34.006l-97.428-97.702c-20.898-20.956-32.184-48.026-33.918-75.604-1.004-0.45-2.004-0.916-2.964-1.446l-102.986-64.406c-13.942-16.39-12.916-42.264 2.276-57.496l179.12-179.604c15.194-15.238 40.996-16.262 57.35-2.286l64.228 103.27c0.528 0.958 0.988 1.96 1.442 2.966 27.502 1.738 54.504 13.050 75.398 34.004l28.292 28.372 498.122-550.114c14.436-15.944 36.7-18.518 49.474-5.712l50.356 50.488c12.764 12.808 10.196 35.132-5.706 49.614z" />
<glyph unicode="&#xe9ca;" glyph-name="earth" d="M512 960c-282.77 0-512-229.23-512-512s229.23-512 512-512 512 229.23 512 512-229.23 512-512 512zM512-0.002c-62.958 0-122.872 13.012-177.23 36.452l233.148 262.29c5.206 5.858 8.082 13.422 8.082 21.26v96c0 17.674-14.326 32-32 32-112.99 0-232.204 117.462-233.374 118.626-6 6.002-14.14 9.374-22.626 9.374h-128c-17.672 0-32-14.328-32-32v-192c0-12.122 6.848-23.202 17.69-28.622l110.31-55.156v-187.886c-116.052 80.956-192 215.432-192 367.664 0 68.714 15.49 133.806 43.138 192h116.862c8.488 0 16.626 3.372 22.628 9.372l128 128c6 6.002 9.372 14.14 9.372 22.628v77.412c40.562 12.074 83.518 18.588 128 18.588 70.406 0 137.004-16.26 196.282-45.2-4.144-3.502-8.176-7.164-12.046-11.036-36.266-36.264-56.236-84.478-56.236-135.764s19.97-99.5 56.236-135.764c36.434-36.432 85.218-56.264 135.634-56.26 3.166 0 6.342 0.080 9.518 0.236 13.814-51.802 38.752-186.656-8.404-372.334-0.444-1.744-0.696-3.488-0.842-5.224-81.324-83.080-194.7-134.656-320.142-134.656z" />
<glyph unicode="&#xe9cd;" glyph-name="attachment" d="M665.832 632.952l-64.952 64.922-324.81-324.742c-53.814-53.792-53.814-141.048 0-194.844 53.804-53.792 141.060-53.792 194.874 0l389.772 389.708c89.714 89.662 89.714 235.062 0 324.726-89.666 89.704-235.112 89.704-324.782 0l-409.23-409.178c-0.29-0.304-0.612-0.576-0.876-0.846-125.102-125.096-125.102-327.856 0-452.906 125.054-125.056 327.868-125.056 452.988 0 0.274 0.274 0.516 0.568 0.82 0.876l0.032-0.034 279.332 279.292-64.986 64.92-279.33-279.262c-0.296-0.268-0.564-0.57-0.846-0.844-89.074-89.058-233.98-89.058-323.076 0-89.062 89.042-89.062 233.922 0 322.978 0.304 0.304 0.604 0.582 0.888 0.846l-0.046 0.060 409.28 409.166c53.712 53.738 141.144 53.738 194.886 0 53.712-53.734 53.712-141.148 0-194.84l-389.772-389.7c-17.936-17.922-47.054-17.922-64.972 0-17.894 17.886-17.894 47.032 0 64.92l324.806 324.782z" />
<glyph unicode="&#xea7f;" glyph-name="embed" d="M576 224l96-96 320 320-320 320-96-96 224-224zM448 672l-96 96-320-320 320-320 96 96-224 224z" />
<glyph unicode="&#xea80;" glyph-name="embed2" horiz-adv-x="1280" d="M832 224l96-96 320 320-320 320-96-96 224-224zM448 672l-96 96-320-320 320-320 96 96-224 224zM701.298 809.481l69.468-18.944-191.987-704.026-69.468 18.944 191.987 704.026z" />
<glyph unicode="&#xea86;" glyph-name="mail4" d="M512 960c-282.77 0-512-229.23-512-512s229.23-512 512-512 512 229.23 512 512-229.23 512-512 512zM256 704h512c9.138 0 18.004-1.962 26.144-5.662l-282.144-329.168-282.144 329.17c8.14 3.696 17.006 5.66 26.144 5.66zM192 256v384c0 1.34 0.056 2.672 0.14 4l187.664-218.942-185.598-185.598c-1.444 5.336-2.206 10.886-2.206 16.54zM768 192h-512c-5.654 0-11.202 0.762-16.54 2.208l182.118 182.118 90.422-105.498 90.424 105.494 182.116-182.12c-5.34-1.44-10.886-2.202-16.54-2.202zM832 256c0-5.654-0.762-11.2-2.206-16.54l-185.6 185.598 187.666 218.942c0.084-1.328 0.14-2.66 0.14-4v-384z" />
<glyph unicode="&#xea8b;" glyph-name="google-plus" d="M325.8 502.6v-111.8h184.8c-7.4-48-55.8-140.6-184.8-140.6-111.2 0-202 92.2-202 205.8s90.8 205.8 202 205.8c63.4 0 105.6-27 129.8-50.2l88.4 85.2c-56.8 53-130.4 85.2-218.2 85.2-180.2-0.2-325.8-145.8-325.8-326s145.6-325.8 325.8-325.8c188 0 312.8 132.2 312.8 318.4 0 21.4-2.4 37.8-5.2 54h-307.6zM1024 512h-96v96h-96v-96h-96v-96h96v-96h96v96h96z" />
<glyph unicode="&#xea8d;" glyph-name="google-plus3" d="M512 960c-282.8 0-512-229.2-512-512s229.2-512 512-512 512 229.2 512 512-229.2 512-512 512zM384 192c-141.6 0-256 114.4-256 256s114.4 256 256 256c69.2 0 127-25.2 171.6-67l-69.6-66.8c-19 18.2-52.2 39.4-102 39.4-87.4 0-158.8-72.4-158.8-161.6s71.4-161.6 158.8-161.6c101.4 0 139.4 72.8 145.2 110.4h-145.2v87.8h241.8c2.2-12.8 4-25.6 4-42.4 0-146.4-98-250.2-245.8-250.2zM832 448v-64h-64v64h-64v64h64v64h64v-64h64v-64h-64z" />
<glyph unicode="&#xea90;" glyph-name="facebook" d="M608 768h160v192h-160c-123.514 0-224-100.486-224-224v-96h-128v-192h128v-512h192v512h160l32 192h-192v96c0 17.346 14.654 32 32 32z" />
<glyph unicode="&#xea91;" glyph-name="facebook2" d="M928 960h-832c-52.8 0-96-43.2-96-96v-832c0-52.8 43.2-96 96-96h416v448h-128v128h128v64c0 105.8 86.2 192 192 192h128v-128h-128c-35.2 0-64-28.8-64-64v-64h192l-32-128h-160v-448h288c52.8 0 96 43.2 96 96v832c0 52.8-43.2 96-96 96z" />
<glyph unicode="&#xea95;" glyph-name="telegram" d="M512 960c-282.8 0-512-229.2-512-512s229.2-512 512-512 512 229.2 512 512-229.2 512-512 512zM763.6 609l-84-395.8c-5.8-28.2-22.8-34.8-46.4-21.8l-128 94.6-61.4-59.8c-7.2-7-12.8-12.8-25.6-12.8-16.6 0-13.8 6.2-19.4 22l-43.6 143.2-126.6 39.4c-27.4 8.4-27.6 27.2 6.2 40.6l493.2 190.4c22.4 10.2 44.2-5.4 35.6-40z" />
<glyph unicode="&#xea9d;" glyph-name="youtube" d="M1013.8 652.8c0 0-10 70.6-40.8 101.6-39 40.8-82.6 41-102.6 43.4-143.2 10.4-358.2 10.4-358.2 10.4h-0.4c0 0-215 0-358.2-10.4-20-2.4-63.6-2.6-102.6-43.4-30.8-31-40.6-101.6-40.6-101.6s-10.2-82.8-10.2-165.8v-77.6c0-82.8 10.2-165.8 10.2-165.8s10-70.6 40.6-101.6c39-40.8 90.2-39.4 113-43.8 82-7.8 348.2-10.2 348.2-10.2s215.2 0.4 358.4 10.6c20 2.4 63.6 2.6 102.6 43.4 30.8 31 40.8 101.6 40.8 101.6s10.2 82.8 10.2 165.8v77.6c-0.2 82.8-10.4 165.8-10.4 165.8zM406.2 315.2v287.8l276.6-144.4-276.6-143.4z" />
<glyph unicode="&#xea9e;" glyph-name="youtube2" horiz-adv-x="2569" d="M344.012 790.601c0.209 0.865 0.344 1.479 0.388 1.8l1.042 7.559-47.349 0.267c-42.779 0.242-55.87-0.007-57.047-1.084-0.565-0.516-15.333-56.633-41.655-158.273-12.556-48.484-23.124-87.206-23.487-86.051s-15.391 56.498-33.397 122.98c-18.006 66.482-33.104 121.243-33.55 121.692-0.623 0.623-57.98 0.9-104.417 0.502-6.735-0.056-10.477 13.11 60.021-211.133 9.759-31.041 24.371-74.997 32.469-97.679 9.333-26.141 15.989-46.323 20.534-63.173 8.038-32.067 8.319-52.163 6.565-75.625-2.026-27.101-2.321-218.438-0.342-221.638 1.512-2.449 91.223-3.589 99.712-1.268 1.358 0.372 2.265 1.691 2.87 8.928 2.119 6.219 2.286 30.969 2.286 133.744v131.281l5.742 18.112c3.756 11.849 13.201 42.995 20.989 69.22 7.789 26.222 17.21 57.619 20.938 69.771 33.834 110.319 66.14 218.831 66.994 225.011l0.693 5.056zM846.122 631.349l-0.021-6.838-1.065-0.014-0.595-188.993-0.577-183.227-14.666-14.929c-16.424-16.719-29.585-23.101-41.488-20.113-12.963 3.254-12.64-1.8-13.722 214.768l-0.998 199.347h-94.316v-6.851h-1.086v-216.289c0-231.737-0.007-231.599 11.752-254.875 9.366-18.536 23.010-27.559 46.391-30.671h0.002c30.79-4.1 64.001 9.849 94.77 39.809l13.373 13.022v-22.445c0-19.396 0.554-22.601 4.070-23.58 5.756-1.605 77.173-1.707 84.89-0.126l6.396 1.314v6.628l1.086 0.223v495.098l-94.195-1.258zM606.892 533.67c-8.935 38.341-25.68 64.115-53.233 81.939-43.281 27.999-92.718 30.957-138.586 8.291-33.425-16.515-54.951-43.914-66.071-84.083-1.326-4.786-2.298-8.812-3.033-14.815-2.83-14.184-3.163-35.351-3.889-133.951-1.121-151.928 0.616-170.003 19.643-204.51 18.664-33.848 57.403-58.661 99.572-63.782 12.696-1.54 38.43 0.858 53.23 4.961 33.632 9.326 65.864 35.906 80.118 66.078 6.158 13.033 9.875 22.096 12.115 38.651 4.175 22.617 4.47 59.175 4.47 152.375-0.002 118.875-0.379 131.862-4.337 148.847zM499.34 223.997c-7.907-6.028-21.734-8.649-32.983-6.249-8.656 1.847-20.338 15.419-23.934 27.801-4.479 15.436-4.823 229.985-0.954 272.059 6.379 21.054 24.19 32.050 43.635 26.813 15.157-4.082 22.915-13.575 27.336-33.457 3.282-14.754 3.67-33.129 2.972-141.26-0.46-71.701-0.716-106.742-3.058-125.553-2.382-11.87-6.319-15.047-13.015-20.154zM2300.389 425.863h45.57l-0.726 41.281c-0.705 37.869-1.263 42.2-6.324 52.472-7.982 16.21-19.759 23.401-38.446 23.401-22.448 0-36.678-10.849-43.388-33.141-2.858-9.486-5.863-74.685-3.707-80.308 1.205-3.144 7.724-3.705 47.021-3.705zM1995.795 519.763c-6.077 12.247-17.385 18.278-30.525 17.806-10.221-0.365-21.561-4.677-32.488-13.010l-8.14-6.177v-296.598l8.14-6.177c18.429-14.052 38.674-17.031 52.619-7.703 5.519 3.691 9.117 8.779 11.919 16.861 3.647 10.524 3.965 24.003 3.489 148.772-0.495 130.043-0.781 137.702-5.014 146.226zM2560.878 653.367c-9.080 108.842-16.303 144.165-38.751 189.544-29.729 60.101-72.692 91.788-133.876 98.747-47.309 5.379-225.315 12.97-390.044 16.631-285.188 6.338-754.057-5.858-813.939-21.173-27.673-7.077-48.426-19.11-70.022-40.604-37.844-37.662-60.391-91.679-69.452-166.396-20.692-170.606-21.134-376.727-1.188-553.515 8.577-76.041 26.243-125.443 59.41-166.159 20.694-25.406 56.352-46.998 88.26-53.442 22.385-4.523 134.42-10.798 297.605-16.668 24.306-0.874 88.667-2.379 143.030-3.344 113.301-2.012 321.627-0.821 440.719 2.519 80.127 2.249 226.201 8.172 253.5 10.282 7.677 0.593 25.469 1.728 39.537 2.523 47.277 2.67 77.353 12.568 105.596 34.76 36.553 28.718 64.857 81.795 76.815 144.037 11.314 58.894 18.887 163.773 20.422 282.851 1.284 99.491-0.426 153.175-7.621 239.409zM1425.273 692.808l-52.982-0.654-2.326-565.143-45.932-0.581c-35.525-0.488-46.307 0.044-47.167 2.326-0.616 1.626-1.356 129.020-1.672 283.153l-0.581 280.246-103.493 1.307v88.304l305.829-1.235 1.307-87.069-52.982-0.654zM1750.216 368.883v-243.035h-83.725v25.583c0 19.247-0.735 25.583-2.979 25.583-1.64 0-9.226-6.344-16.861-14.098-16.557-16.817-36.171-30.367-52.91-36.63-34.662-12.968-67.589-5.4-81.618 18.75-12.838 22.11-13.082 27.052-13.082 256.335v210.547h83.653l0.654-198.265c0.623-194.821 0.714-198.393 5.377-206.333 6.182-10.521 15.608-13.347 30.597-9.231 8.817 2.423 14.836 6.707 29.143 20.931l18.024 17.952v374.946h83.725v-243.035zM2076.757 160.59c-7.372-16.424-23.806-32.509-37.283-36.485-35.167-10.382-63.375-1.923-95.935 28.708-10.103 9.505-19.51 17.224-20.931 17.224-1.712 0-2.616-7.449-2.616-22.094v-22.094h-83.725v655.845h83.725v-106.982c0-58.84 0.786-106.982 1.744-106.982s9.789 7.807 19.624 17.298c22.629 21.841 41.548 31.399 65.557 33.213 42.811 3.24 68.327-18.794 80.018-69.117 3.647-15.696 3.998-33.625 3.998-179.078-0.002-177.178-0.021-177.918-14.175-209.457zM2430.99 257.832c-0.744-18.226-2.954-39.137-4.942-46.514-11.642-43.167-42.635-73.731-87.432-86.269-60.315-16.878-126.704 10.777-153.205 63.812-14.875 29.769-15.408 35.706-15.408 181.185 0 118.617 0.419 133.171 4.214 149.354 10.747 45.788 37.392 75.422 82.49 91.865 13.068 4.765 26.708 7.207 40.337 7.486 48.672 0.998 96.984-25.18 117.229-67.808 13.659-28.76 15.35-41.060 16.717-122.099l1.235-72.678-178.497-1.235-0.654-48.84c-0.93-68.901 3.716-90.088 22.313-102.621 15.645-10.54 39.679-9.745 52.765 1.744 12.263 10.768 15.726 22.336 16.933 56.107l1.091 29.653h86.195l-1.381-33.143z" />
<glyph unicode="&#xeab9;" glyph-name="tumblr" d="M576.032 512l-0.002-234.184c0-59.418-0.77-93.656 5.53-110.5 6.25-16.754 21.918-34.146 38.99-44.202 22.684-13.588 48.542-20.376 77.708-20.376 51.854 0 82.478 6.848 133.742 40.54v-153.944c-43.7-20.552-81.866-32.594-117.324-40.922-35.5-8.242-73.86-12.406-115.064-12.406-46.828 0-74.456 5.886-110.41 17.656-35.958 11.868-66.66 28.806-92.020 50.54-25.45 21.922-43.022 45.208-52.848 69.832-9.826 24.636-14.716 60.414-14.716 107.244v359.1h-137.426v145.006c40.208 13.042 85.164 31.788 113.78 56.152 28.754 24.45 51.766 53.706 69.106 87.944 17.392 34.146 29.348 77.712 35.872 130.516h165.084l-0.002-255.996h255.968v-192h-255.968z" />
<glyph unicode="&#xeaba;" glyph-name="tumblr2" d="M928 960h-832c-52.8 0-96-43.2-96-96v-832c0-52.8 43.2-96 96-96h832c52.8 0 96 43.2 96 96v832c0 52.8-43.2 96-96 96zM731.8 135.4c-30.2-14.2-57.6-24.2-82-30-24.4-5.6-51-8.6-79.4-8.6-32.4 0-51.4 4-76.2 12.2s-46 19.8-63.6 34.8c-17.6 15.2-29.6 31.2-36.4 48.2s-10.2 41.6-10.2 74v247.8h-96v100c27.8 9 60 22 79.6 38.8 19.8 16.8 35.8 37 47.6 60.6 12 23.6 20.2 53.6 24.8 90h100.4v-163.2h163.6v-126.2h-163.4v-181.2c0-41-0.6-64.6 3.8-76.2s15.2-23.6 27-30.4c15.6-9.4 33.6-14 53.6-14 35.8 0 71.4 11.6 106.8 34.8v-111.4z" />
<glyph unicode="&#xeabe;" glyph-name="appleinc" d="M791.498 415.908c-1.294 129.682 105.758 191.876 110.542 194.966-60.152 88.020-153.85 100.078-187.242 101.472-79.742 8.074-155.596-46.948-196.066-46.948-40.368 0-102.818 45.754-168.952 44.552-86.916-1.292-167.058-50.538-211.812-128.38-90.304-156.698-23.126-388.84 64.89-515.926 43.008-62.204 94.292-132.076 161.626-129.58 64.842 2.588 89.362 41.958 167.756 41.958s100.428-41.958 169.050-40.67c69.774 1.296 113.982 63.398 156.692 125.796 49.39 72.168 69.726 142.038 70.924 145.626-1.548 0.706-136.060 52.236-137.408 207.134zM662.562 796.478c35.738 43.358 59.86 103.512 53.28 163.522-51.478-2.096-113.878-34.29-150.81-77.55-33.142-38.376-62.148-99.626-54.374-158.436 57.466-4.484 116.128 29.204 151.904 72.464z" />
<glyph unicode="&#xeac2;" glyph-name="windows8" d="M0.35 448l-0.35 312.074 384 52.144v-364.218zM448 821.518l511.872 74.482v-448h-511.872zM959.998 384l-0.126-448-511.872 72.016v375.984zM384 16.164l-383.688 52.594-0.020 315.242h383.708z" />
<glyph unicode="&#xeac9;" glyph-name="linkedin" d="M928 960h-832c-52.8 0-96-43.2-96-96v-832c0-52.8 43.2-96 96-96h832c52.8 0 96 43.2 96 96v832c0 52.8-43.2 96-96 96zM384 128h-128v448h128v-448zM320 640c-35.4 0-64 28.6-64 64s28.6 64 64 64c35.4 0 64-28.6 64-64s-28.6-64-64-64zM832 128h-128v256c0 35.4-28.6 64-64 64s-64-28.6-64-64v-256h-128v448h128v-79.4c26.4 36.2 66.8 79.4 112 79.4 79.6 0 144-71.6 144-160v-288z" />
<glyph unicode="&#xeaca;" glyph-name="linkedin2" d="M384 576h177.106v-90.782h2.532c24.64 44.194 84.958 90.782 174.842 90.782 186.946 0 221.52-116.376 221.52-267.734v-308.266h-184.61v273.278c0 65.184-1.334 149.026-96.028 149.026-96.148 0-110.82-70.986-110.82-144.292v-278.012h-184.542v576zM64 576h192v-576h-192v576zM256 736c0-53.019-42.981-96-96-96s-96 42.981-96 96c0 53.019 42.981 96 96 96s96-42.981 96-96z" />
<glyph unicode="&#xead1;" glyph-name="pinterest" d="M512 891.6c-245 0-443.6-198.6-443.6-443.6 0-188 117-348.4 282-413-3.8 35-7.4 89 1.6 127.2 8 34.6 52 220.4 52 220.4s-13.2 26.6-13.2 65.8c0 61.6 35.8 107.8 80.2 107.8 37.8 0 56.2-28.4 56.2-62.4 0-38-24.2-95-36.8-147.6-10.6-44.2 22-80.2 65.6-80.2 78.8 0 139.4 83.2 139.4 203.2 0 106.2-76.4 180.4-185.2 180.4-126.2 0-200.2-94.6-200.2-192.6 0-38.2 14.6-79 33-101.2 3.6-4.4 4.2-8.2 3-12.8-3.4-14-10.8-44.2-12.4-50.4-2-8.2-6.4-9.8-14.8-6-55.4 25.8-90 106.8-90 171.8 0 140 101.6 268.4 293 268.4 153.8 0 273.4-109.6 273.4-256.2 0-152.8-96.4-276-230.2-276-45 0-87.2 23.4-101.6 51 0 0-22.2-84.6-27.6-105.4-10-38.6-37-86.8-55.2-116.2 41.6-12.8 85.6-19.8 131.4-19.8 245 0 443.6 198.6 443.6 443.6 0 245.2-198.6 443.8-443.6 443.8z" />
<glyph unicode="&#xead2;" glyph-name="pinterest2" d="M512 960c-282.4 0-512-229.6-512-512s229.6-512 512-512 512 229.6 512 512-229.6 512-512 512zM512 4.4c-45.8 0-89.8 7-131.4 19.8 18 29.4 45.2 77.8 55.2 116.2 5.4 20.8 27.6 105.4 27.6 105.4 14.4-27.6 56.8-51 101.6-51 133.8 0 230.2 123 230.2 276 0 146.6-119.6 256.2-273.4 256.2-191.4 0-293-128.6-293-268.4 0-65 34.6-146 90-171.8 8.4-4 12.8-2.2 14.8 6 1.4 6.2 9 36.2 12.4 50.4 1 4.4 0.6 8.4-3 12.8-18.4 22.2-33 63.2-33 101.2 0 97.8 74 192.6 200.2 192.6 109 0 185.2-74.2 185.2-180.4 0-120-60.6-203.2-139.4-203.2-43.6 0-76.2 36-65.6 80.2 12.6 52.8 36.8 109.6 36.8 147.6 0 34-18.2 62.4-56.2 62.4-44.6 0-80.2-46-80.2-107.8 0-39.2 13.2-65.8 13.2-65.8s-44-185.8-52-220.4c-9-38.4-5.4-92.2-1.6-127.2-165 64.4-282 224.8-282 412.8 0 245 198.6 443.6 443.6 443.6s443.6-198.6 443.6-443.6c0-245-198.6-443.6-443.6-443.6z" />
</font>
</defs>
</svg>
